<svg width="85" height="85" xmlns="http://www.w3.org/2000/svg">
 <g>
  <title>background</title>
  <rect x="-1" y="-1" width="87" height="87" id="canvas_background" fill="none"/>
 </g>

 <g>
  <title>Layer 1</title>
  <g id="svg_1">
   <path class="st0" d="m82.507314,84.962862l-80,0c-1.4,0 -2.5,-1.1 -2.5,-2.5l0,-80c0,-1.4 1.1,-2.5 2.5,-2.5l40,0c1.4,0 2.5,1.1 2.5,2.5l0,37.5l37.5,0c1.4,0 2.5,1.1 2.5,2.5l0,40c0,1.4 -1.1,2.5 -2.5,2.5zm-77.5,-5l75,0l0,-35l-37.5,0c-1.4,0 -2.5,-1.1 -2.5,-2.5l0,-37.5l-35,0l0,75z" id="svg_2" stroke-width="30"/>
  </g>
 </g>
</svg>